<?xml version="1.0" encoding="UTF-8" standalone="no"?>
<svg
    xmlns:rdf="http://www.w3.org/1999/02/22-rdf-syntax-ns#"
    xmlns="http://www.w3.org/2000/svg"
    xmlns:sodipodi="http://sodipodi.sourceforge.net/DTD/sodipodi-0.dtd"
    xmlns:cc="http://web.resource.org/cc/"
    xmlns:xlink="http://www.w3.org/1999/xlink"
    xmlns:dc="http://purl.org/dc/elements/1.1/"
    xmlns:svg="http://www.w3.org/2000/svg"
    xmlns:ns1="http://sozi.baierouge.fr"

    viewBox="0 0 366 379"

    version="1.0"
  >
  <g transform="translate(-172.48 -142.17)">
      <path
          id="path1881"
          style="stroke:black;stroke-width:.47141;fill:#fff"
          d="m422.25 142.41c-10.29 0.3-30.19 16.13-44.81 40.18-8.38 13.79-15.66 34.31-21.94 54.1-6.19-16.85-13.63-34.9-24.16-49.41-17.59-24.24-43.77-40.75-53.03-36.94-9.26 3.82-15.63 30.5-10.19 59.75 3.13 16.77 12.88 38.29 22.32 57.72-16.66-7.81-35.23-15.79-53.47-18.75-29.57-4.79-59.75 1.99-63.63 11.22-3.88 9.24 10.4 32.63 34.88 49.53 10.38 7.17 25.18 13.64 40.44 19.41-11.47 4.89-22.78 10.58-32.47 17.69-24.16 17.71-40.52 43.97-36.66 53.21 3.86 9.25 30.56 15.5 59.78 9.91 13.3-2.54 29.58-9.31 45.44-16.75-6.85 15.53-13.38 32.46-15.81 49.06-4.34 29.64 2.86 59.73 12.15 63.47 9.3 3.74 32.51-10.88 49.03-35.62 8.34-12.47 15.58-31.17 21.85-49.44 5.9 16.95 13 35.13 23.28 49.81 17.18 24.54 43.08 41.47 52.41 37.82 9.32-3.66 16.14-30.23 11.18-59.57-2.87-17.02-12.44-39-21.65-58.78 17.05 7.08 36.05 14.25 54.5 16.38 29.76 3.43 59.61-4.73 63.06-14.13s-11.89-32.11-37.13-47.87c-11.11-6.95-26.95-12.93-43.09-18.13 9.8-4.22 19.33-9.08 27.72-15 24.47-17.28 41.32-43.22 37.63-52.53-3.7-9.31-30.28-16.04-59.6-10.97-11.77 2.04-25.92 7.29-40.06 13.41 7-16.99 13.84-35.61 16.37-53.6 4.35-30.86-2.48-61.46-11.47-64.75-0.84-0.3-1.81-0.47-2.87-0.43zm-69.84 146.34l15.59 6.53 17.72 50.66-6.03 14.56-24.16 8.38-26.22-11.82-13.09-35.4 11.12-23.75 25.07-9.16z"
      />
      <path
          id="path1871"
          sodipodi:rx="60.164116"
          sodipodi:ry="52.006271"
          style="fill:#d88807"
          sodipodi:type="arc"
          d="m279.41 308.98a60.164 52.006 0 1 1 -120.33 0 60.164 52.006 0 1 1 120.33 0z"
          transform="matrix(.9309 -.36528 .36528 .9309 39.011 122.44)"
          
      />
  </g>
</svg>
